<?xml version="1.0" encoding="UTF-8" standalone="no"?>
<!DOCTYPE svg PUBLIC "-//W3C//DTD SVG 1.1//EN" "http://www.w3.org/Graphics/SVG/1.1/DTD/svg11.dtd">
<svg width="100%" height="100%" viewBox="0 0 130 170" version="1.1" xmlns="http://www.w3.org/2000/svg" xmlns:xlink="http://www.w3.org/1999/xlink" xml:space="preserve" xmlns:serif="http://www.serif.com/" style="fill-rule:evenodd;clip-rule:evenodd;">
    <g id="g10241" transform="matrix(0.264583,0,0,0.264583,-487.134,-74.3488)">
        <g id="g18144" transform="matrix(1.11111,0,0,1.11111,-9758.13,-6059.06)">
            <g id="path10188" transform="matrix(0.238125,0,0,0.238125,0,0)">
                <path d="M44767.6,24775.3L43839.8,25310.9L43839.8,24775.3L44767.6,24239.6L44767.6,24775.3Z" style="fill:rgb(205,216,225);fill-rule:nonzero;"/>
            </g>
            <g id="path10191" transform="matrix(0.238125,0,0,0.238125,0,0)">
                <path d="M45695.3,24775.3L45695.3,25310.9L44767.6,24775.3L44767.6,24239.6L45695.3,24775.3Z" style="fill:rgb(141,165,180);fill-rule:nonzero;"/>
            </g>
            <g id="path10194" transform="matrix(0.238125,0,0,0.238125,0,0)">
                <path d="M44767.6,26382.3L45695.3,25846.6L45695.3,24775.3L44767.6,25310.9L44767.6,26382.3Z" style="fill:rgb(141,165,180);fill-rule:nonzero;"/>
            </g>
            <g id="path10197" transform="matrix(0.238125,0,0,0.238125,-154.657,-89.2913)">
                <path d="M44566.6,25194.9L44644,25239.5L45340.7,24837.3L45340.7,24480.1L44566.6,24927L44566.6,25194.9Z" style="fill:rgb(249,249,249);fill-rule:nonzero;stroke:rgb(204,204,204);stroke-width:10.71px;"/>
            </g>
            <g id="path10200" transform="matrix(0.238125,0,0,0.238125,-154.657,-89.2913)">
                <path d="M44566.6,25194.9L44644,25239.5L45340.7,24837.3L45340.7,24480.1L44566.6,24927L44566.6,25194.9Z" style="fill:rgb(249,249,249);fill-rule:nonzero;stroke:rgb(204,204,204);stroke-width:10.71px;"/>
            </g>
            <g id="path10203" transform="matrix(0.238125,0,0,0.238125,-136.439,-78.7734)">
                <path d="M44566.6,25194.9L44644,25239.5L45340.7,24837.3L45340.7,24480.1L44566.6,24927L44566.6,25194.9Z" style="fill:rgb(249,249,249);fill-rule:nonzero;stroke:rgb(204,204,204);stroke-width:10.71px;"/>
            </g>
            <g id="path10206" transform="matrix(0.238125,0,0,0.238125,-125.199,-72.2835)">
                <path d="M44597.5,25212.7L44674.9,25257.4L45293.4,24900.2L45293.4,24275.3L44597.5,24677L44597.5,25212.7Z" style="fill:rgb(249,249,249);fill-rule:nonzero;stroke:rgb(204,204,204);stroke-width:10.71px;"/>
            </g>
            <g id="path10209" transform="matrix(0.238125,0,0,0.238125,-106.787,-61.6535)">
                <path d="M44597.5,25212.7L44674.9,25257.4L45370.8,24855.6L45370.8,24498.5L44597.5,24944.9L44597.5,25212.7Z" style="fill:rgb(249,249,249);fill-rule:nonzero;stroke:rgb(204,204,204);stroke-width:10.71px;"/>
            </g>
            <g id="path10212" transform="matrix(0.238125,0,0,0.238125,-88.3755,-51.0236)">
                <path d="M44598.3,25213.2L44674.9,25257.4L45370.8,24855.6L45370.8,24498.5L44597.5,24944.9L44598.3,25213.2Z" style="fill:rgb(249,249,249);fill-rule:nonzero;stroke:rgb(204,204,204);stroke-width:10.71px;"/>
            </g>
            <g id="path10215" transform="matrix(0.238125,0,0,0.238125,-69.9639,-40.3937)">
                <path d="M44597.5,25212.7L44674.9,25257.4L45372.5,24856.6L45370.8,24498.5L44597.5,24944.9L44597.5,25212.7Z" style="fill:rgb(249,249,249);fill-rule:nonzero;stroke:rgb(204,204,204);stroke-width:10.71px;"/>
            </g>
            <g id="path10218" transform="matrix(0.238125,0,0,0.238125,-66.2814,-89.2913)">
                <path d="M44659.3,25462.7L44736.7,25507.3L45356.9,25151.2L45355.2,24525.3L44659.3,24927L44659.3,25462.7Z" style="fill:rgb(249,249,249);fill-rule:nonzero;stroke:rgb(204,204,204);stroke-width:10.71px;"/>
            </g>
            <g id="path10221" transform="matrix(0.238125,0,0,0.238125,-44.1876,-25.5118)">
                <path d="M44645.7,25240.5L44721.4,25284.1L45417.3,24882.4L45417.3,24525.3L44644,24971.7L44645.7,25240.5Z" style="fill:rgb(249,249,249);fill-rule:nonzero;stroke:rgb(204,204,204);stroke-width:10.71px;"/>
            </g>
            <g id="path10224" transform="matrix(0.238125,0,0,0.238125,-22.0938,-12.7559)">
                <path d="M44628.4,25230.6L44709.2,25277.1L45401.7,24873.4L45401.7,24516.3L44628.4,24962.7L44628.4,25230.6Z" style="fill:rgb(249,249,249);fill-rule:nonzero;stroke:rgb(204,204,204);stroke-width:10.71px;"/>
            </g>
            <g id="path10227" transform="matrix(0.238125,0,0,0.238125,5.51186e-05,-1.05473e-05)">
                <path d="M44613.1,25221.7L44690.5,25266.3L45386.1,24864.5L45386.1,24507.4L44613.1,24953.8L44613.1,25221.7Z" style="fill:rgb(249,249,249);fill-rule:nonzero;stroke:rgb(204,204,204);stroke-width:10.71px;"/>
            </g>
            <g id="path10230" transform="matrix(0.238125,0,0,0.238125,22.0939,12.7559)">
                <path d="M44597.5,25212.7L44674.9,25257.4L45370.8,24855.6L45370.8,24498.5L44597.5,24944.9L44597.5,25212.7Z" style="fill:rgb(249,249,249);fill-rule:nonzero;stroke:rgb(204,204,204);stroke-width:10.71px;"/>
            </g>
            <g id="path10233" transform="matrix(0.238125,0,0,0.238125,0,0)">
                <path d="M44767.6,26382.3L43839.8,25846.6L43839.8,24775.3L44767.6,25310.9L44767.6,26382.3Z" style="fill:rgb(205,216,225);fill-rule:nonzero;"/>
            </g>
        </g>
        <g id="text10237" transform="matrix(0.866025,0.5,0,1.1547,1878.66,716.639)">
            <text x="0px" y="0px" style="font-family:'Arial-BoldMT', 'Arial', sans-serif;font-weight:700;font-size:136.063px;fill:rgb(141,165,180);">&lt;/&gt;</text>
        </g>
    </g>
</svg>
